inDegrees=yes
name=ik_tiny_file
DataType=double
version=3
OpenSimVersion=4.4-2022-07-23-0e9fedc
endheader
time	pelvis_tilt	pelvis_list	pelvis_rotation	pelvis_tx	pelvis_ty	pelvis_tz	hip_flexion_r	hip_adduction_r	hip_rotation_r	knee_angle_r	knee_angle_r_beta	ankle_angle_r	subtalar_angle_r	mtp_angle_r	hip_flexion_l	hip_adduction_l	hip_rotation_l	knee_angle_l	knee_angle_l_beta	ankle_angle_l	subtalar_angle_l	mtp_angle_l	lumbar_extension	lumbar_bending	lumbar_rotation	arm_flex_r	arm_add_r	arm_rot_r	elbow_flex_r	pro_sup_r	wrist_flex_r	wrist_dev_r	arm_flex_l	arm_add_l	arm_rot_l	elbow_flex_l	pro_sup_l	wrist_flex_l	wrist_dev_l
6.08	87.74434245562881	-17.05325206226055	28.60316820562202	0	0.9399999999999999	0	42.40584224692977	-9.998552782793533	0	55.73886862064988	0.9728267787668906	-4.876896686098386	0	0	42.40584224692977	-9.998552782793533	0	55.73886862064988	0.9728267787668906	-4.876896686098386	0	0	-89.95736976982897	27.70791807080861	26.50019011286017	-48.56284307105222	14.60163823724912	-33.62986358370282	104.2632673778302	44.98307452018536	0	4.999997807443986	3.872378744857687	-7.994544782066615	89.99000581643466	11.3576485132905	44.98307452018536	0	4.999997807443986
6.1	87.66493926981207	-17.06864864890422	28.56373261046806	0	0.9399999999999999	0	42.40701636312068	-9.998555067720364	0	55.740388339673	0.9728533028675492	-4.87697382674213	0	0	42.40701636312068	-9.998555067720364	0	55.740388339673	0.9728533028675492	-4.87697382674213	0	0	-89.95843859675323	27.73121125745963	26.45714897481044	-48.52855740142828	15.06824749814839	-33.12456049456372	108.4893942268715	44.98309566129787	0	4.999997813963389	4.016860594026153	-7.951984060458803	89.98997876169568	11.44366867631674	44.98309566129787	0	4.999997813963389
6.12	87.66164632911736	-17.12994566950758	28.54996209737265	0	0.9399999999999999	0	42.40889049309087	-9.998558716696527	0	55.74281080549193	0.9728955828721065	-4.877096995122011	0	0	42.40889049309087	-9.998558716696527	0	55.74281080549193	0.9728955828721065	-4.877096995122011	0	0	-89.95825883191311	27.72974852485325	26.43537736209371	-48.27348367470402	15.18138064307771	-32.59930987453332	112.2996568248172	44.98312942568989	0	4.999997824367003	4.096868793825879	-7.969068741376633	89.98998676964145	11.60031050928229	44.98312942568989	0	4.999997824367003
6.14	87.62304220036869	-17.19129858013969	28.48259017008946	0	0.9399999999999999	0	42.40990326684656	-9.998560680340118	0	55.74412291995674	0.9729184835896805	-4.877163490553099	0	0	42.40990326684656	-9.998560680340118	0	55.74412291995674	0.9729184835896805	-4.877163490553099	0	0	-89.95873996336866	27.73099834970363	26.40411485569726	-47.87715723865519	14.76693031442459	-32.50302561403213	115.4566851173395	44.98314761206545	0	4.999997829950513	4.164697771780087	-7.902041408410065	89.99003420655949	11.72758897791453	44.98314761206545	0	4.999997829950513
6.16	87.64218233891708	-17.25078692221429	28.50837689886481	0	0.9399999999999999	0	42.41203087432226	-9.998564785908393	0	55.74688096471782	0.9729666205516789	-4.877303081456793	0	0	42.41203087432226	-9.998564785908393	0	55.74688096471782	0.9729666205516789	-4.877303081456793	0	0	-89.95871355140835	27.75106765519642	26.41226455332129	-47.46503828451502	14.31308090169542	-32.26095637316608	118.6623969202562	44.98318568806118	0	4.999997841569538	4.121544095673934	-7.939929611595494	89.99008821697565	11.73687343109502	44.98318568806118	0	4.999997841569538
6.18	87.6094213599209	-17.2995927548611	28.50830946944174	0	0.9399999999999999	0	42.41397634225358	-9.998568525196251	0	55.74940726519087	0.9730107128128281	-4.877430615198784	0	0	42.41397634225358	-9.998568525196251	0	55.74940726519087	0.9730107128128281	-4.877430615198784	0	0	-89.95865824975174	27.75552435441716	26.46789130319706	-46.64121606312205	13.49107534097884	-32.15409838332162	121.266573083755	44.98322039930071	0	4.999997852121062	4.098265555574425	-7.942682303085709	89.9901357393348	11.63479254210268	44.98322039930071	0	4.999997852121062
6.2	87.59071205097069	-17.35261320918344	28.51388080965983	0	0.9399999999999999	0	42.41563761424533	-9.998571709156753	0	55.75156595539784	0.9730483890644704	-4.877539464002512	0	0	42.41563761424533	-9.998571709156753	0	55.75156595539784	0.9730483890644704	-4.877539464002512	0	0	-89.95812471584894	27.75446703982723	26.49572056038539	-45.58182932990823	12.48128092114613	-32.21511488122025	123.529511021381	44.9832499781463	0	4.99999786108202	4.087897311980902	-7.907127521178553	89.99023941620267	11.60800717753204	44.9832499781463	0	4.99999786108202
6.22	87.58464848147581	-17.38966283936985	28.52921525261623	0	0.9399999999999999	0	42.41745531682574	-9.998575183063085	0	55.75393038938064	0.9730896562224163	-4.877658494344295	0	0	42.41745531682574	-9.998575183063085	0	55.75393038938064	0.9730896562224163	-4.877658494344295	0	0	-89.9580544909106	27.78760924424452	26.52297209994971	-44.6404550896194	11.37866831530797	-32.21011596281529	126.2674514699656	44.98328227304182	0	4.999997870836876	4.054617300478425	-7.888944951483004	89.99037466856097	11.5829038429272	44.98328227304182	0	4.999997870836876
6.24	87.56787413968632	-17.41448570163483	28.54374561077842	0	0.9399999999999999	0	42.41938821248435	-9.99857885610712	0	55.75645037245516	0.9731336382241611	-4.877784921975342	0	0	42.41938821248435	-9.99857885610712	0	55.75645037245516	0.9731336382241611	-4.877784921975342	0	0	-89.95759787714948	27.77814622751811	26.60055376115658	-43.51995255099687	9.867160446350463	-32.2512895960386	128.2366231264673	44.98331646630189	0	4.999997881106581	4.103804471266686	-7.924858230044164	89.99053334642363	11.65922862188394	44.98331646630189	0	4.999997881106581
6.26	87.5492535630993	-17.41021209491077	28.57483332091175	0	0.9399999999999999	0	42.42111622072838	-9.998582152016077	0	55.75869700005395	0.9731728492728262	-4.87789805537608	0	0	42.42111622072838	-9.998582152016077	0	55.75869700005395	0.9731728492728262	-4.87789805537608	0	0	-89.95706067129653	27.80826758027924	26.73197874637191	-42.57424994797897	8.745463795130958	-32.51957160948839	130.4575185209723	44.9833471275918	0	4.999997890335522	4.176973637869733	-7.963665601232524	89.99069616912342	11.86816446983129	44.9833471275918	0	4.999997890335522
6.28	87.56068728511647	-17.39668632440634	28.63004939321074	0	0.9399999999999999	0	42.42267592348209	-9.998585113965316	0	55.76072922919195	0.9732083183624394	-4.878000070876543	0	0	42.42267592348209	-9.998585113965316	0	55.76072922919195	0.9732083183624394	-4.878000070876543	0	0	-89.95664381122863	27.83660946983159	26.87434328441241	-41.70713831630065	7.518162775377873	-32.68023952657365	132.5643106571383	44.98337470913055	0	4.999997898604833	4.183089657294262	-8.002602717116755	89.99082296678267	11.88895069838507	44.98337470913055	0	4.999997898604833
6.3	87.60700791079498	-17.35542598963781	28.68681904316665	0	0.9399999999999999	0	42.42426156551038	-9.998588125173548	0	55.76279338820644	0.9732443447335268	-4.878103798083844	0	0	42.42426156551038	-9.998588125173548	0	55.76279338820644	0.9732443447335268	-4.878103798083844	0	0	-89.95611291755851	27.84274219315261	26.96588008542373	-40.73248240016497	6.250212888530745	-32.83971660957069	134.3593173076458	44.98340275346796	0	4.999997907004353	4.119868392000591	-8.001775047054487	89.99094097326187	11.86559622039656	44.98340275346796	0	4.999997907004353
6.32	87.59953879891236	-17.32613112862598	28.69240649829719	0	0.9399999999999999	0	42.42582082399787	-9.998591087655175	0	55.76482074973832	0.9732797288673865	-4.878205825869342	0	0	42.42582082399787	-9.998591087655175	0	55.76482074973832	0.9732797288673865	-4.878205825869342	0	0	-89.95525449088623	27.80204658947981	27.07303210659911	-39.73419468140769	5.027938032883472	-33.04239764829003	135.9043007440694	44.9834303454798	0	4.999997915262696	4.123803550527533	-7.993137431827606	89.99107212817873	11.87831284590622	44.9834303454798	0	4.999997915262696
6.34	87.53172725412929	-17.28753021621154	28.69285182360162	0	0.9399999999999999	0	42.42653925806511	-9.998592453651732	0	55.76575552618068	0.9732960437940756	-4.878252832994747	0	0	42.42653925806511	-9.998592453651732	0	55.76575552618068	0.9732960437940756	-4.878252832994747	0	0	-89.95582966317328	27.73699482095758	27.22157381745634	-39.02712346870704	4.167397412258939	-33.23976317288697	137.7607449297932	44.98344306367711	0	4.999997919075489	4.209586169179773	-8.011398606271971	89.99124121610527	11.87438650631584	44.98344306367711	0	4.999997919075489
6.36	87.48108922964596	-17.25224620882316	28.7088667757487	0	0.9399999999999999	0	42.42736000916103	-9.998594016539148	0	55.76682155187167	0.9733146494522944	-4.878306561752476	0	0	42.42736000916103	-9.998594016539148	0	55.76682155187167	0.9733146494522944	-4.878306561752476	0	0	-89.95646019547523	27.67239539606213	27.36186140498128	-38.47207564427929	3.437442095356231	-33.33104643661726	139.8296789422793	44.98345761250622	0	4.999997923438201	4.271439147124155	-8.074600201238303	89.99140276304479	11.95464118663543	44.98345761250622	0	4.999997923438201
6.38	87.43105499476209	-17.20220217901232	28.73478314645212	0	0.9399999999999999	0	42.42817755620344	-9.998595574332532	0	55.76788223135392	0.9733331618015679	-4.87836009553864	0	0	42.42817755620344	-9.998595574332532	0	55.76788223135392	0.9733331618015679	-4.87836009553864	0	0	-89.95747267914324	27.62110494390078	27.534922737917	-38.02300745763689	2.688113024321893	-33.52913664348915	141.804702760499	44.98347211367944	0	4.999997927785389	4.343177775509826	-8.110048330858232	89.9915138852942	12.0231634039828	44.98347211367944	0	4.999997927785389
